Output #0, s16le, to 'pipe:':
[out#0/s16le @ 0000022d0949c1c0] Output file does not contain any stream
Error opening output file -.
Error opening output files: Invalid argument

Processing 285/7010: video1253.mp4
✅ Saved transcript to: output/transcripts\video1253.json
Processing 286/7010: video1254.mp4
✅ Saved transcript to: output/transcripts\video1254.json
Processing 287/7010: video1255.mp4
✅ Saved transcript to: output/transcripts\video1255.json
Processing 288/7010: video1256.mp4
✅ Saved transcript to: output/transcripts\video1256.json
Processing 289/7010: video1257.mp4
✅ Saved transcript to: output/transcripts\video1257.json
Processing 290/7010: video1258.mp4
✅ Saved transcript to: output/transcripts\video1258.json
Processing 291/7010: video1259.mp4
✅ Saved transcript to: output/transcripts\video1259.json
Processing 292/7010: video126.mp4
✅ Saved transcript to: output/transcripts\video126.json
Processing 293/7010: video1260.mp4
✅ Saved transcript to: output/transcripts\video1260.json
Processing 294/7010: video1261.mp4
✅ Saved transcript to: output/transcripts\video1261.json
Processing 295/7010: video1262.mp4
✅ Saved transcript to: output/transcripts\video1262.json
Processing 296/7010: video1263.mp4
✅ Saved transcript to: output/transcripts\video1263.json
Processing 297/7010: video1264.mp4
✅ Saved transcript to: output/transcripts\video1264.json
Processing 298/7010: video1265.mp4
✅ Saved transcript to: output/transcripts\video1265.json
Processing 299/7010: video1266.mp4
✅ Saved transcript to: output/transcripts\video1266.json
Processing 300/7010: video1267.mp4
✅ Saved transcript to: output/transcripts\video1267.json
Processing 301/7010: video1268.mp4
✅ Saved transcript to: output/transcripts\video1268.json
Processing 302/7010: video1269.mp4
✅ Saved transcript to: output/transcripts\video1269.json
Processing 303/7010: video127.mp4
❌ Error processing data\video127.mp4: Failed to load audio: ffmpeg version N-118142-g5ca5bbd462-20241223 Copyright (c) 2000-2024 the FFmpeg developers
built with gcc 14.2.0 (crosstool-NG 1.26.0.120_4d36f27)
configuration: --prefix=/ffbuild/prefix --pkg-config-flags=--static --pkg-config=pkg-config --cross-prefix=x86_64-w64-mingw32- --arch=x86_64 --target-os=mingw32 --enable-gpl --enable-version3 --disable-debug --disable-w32threads --enable-pthreads --enable-iconv --enable-zlib --enable-libfreetype --enable-libfribidi --enable-gmp --enable-libxml2 --enable-lzma --enable-fontconfig --enable-libharfbuzz --enable-libvorbis --enable-opencl --disable-libpulse --enable-libvmaf --disable-libxcb --disable-xlib --enable-amf --enable-libaom --enable-libaribb24 --enable-avisynth --enable-chromaprint --enable-libdav1d --enable-libdavs2 --enable-libdvdread --enable-libdvdnav --disable-libfdk-aac --enable-ffnvcodec --enable-cuda-llvm --enable-frei0r --enable-libgme --enable-libkvazaar --enable-libaribcaption --enable-libass --enable-libbluray --enable-libjxl --enable-libmp3lame --enable-libopus --enable-librist --enable-libssh --enable-libtheora --enable-libvpx --enable-libwebp --enable-libzmq --enable-lv2 --enable-libvpl --enable-openal --enable-libopencore-amrnb --enable-libopencore-amrwb --enable-libopenh264 --enable-libopenjpeg --enable-libopenmpt --enable-librav1e --enable-librubberband --enable-schannel --enable-sdl2 --enable-libsoxr --enable-libsrt --enable-libsvtav1 --enable-libtwolame --enable-libuavs3d --disable-libdrm --enable-vaapi --enable-libvidstab --enable-vulkan --enable-libshaderc --enable-libplacebo --disable-libvvenc --enable-libx264 --enable-libx265 --enable-libxavs2 --enable-libxvid --enable-libzimg --enable-libzvbi --extra-cflags=-DLIBTWOLAME_STATIC --extra-cxxflags= --extra-libs=-lgomp --extra-ldflags=-pthread --extra-ldexeflags= --cc=x86_64-w64-mingw32-gcc --cxx=x86_64-w64-mingw32-g++ --ar=x86_64-w64-mingw32-gcc-ar --ranlib=x86_64-w64-mingw32-gcc-ranlib --nm=x86_64-w64-mingw32-gcc-nm --extra-version=20241223
libavutil 59. 51.100 / 59. 51.100
libavcodec 61. 28.100 / 61. 28.100
libavformat 61. 9.101 / 61. 9.101
libavdevice 61. 4.100 / 61. 4.100
libavfilter 10. 6.101 / 10. 6.101
libswscale 8. 13.100 / 8. 13.100
libswresample 5. 4.100 / 5. 4.100
libpostproc 58. 4.100 / 58. 4.100
Input #0, mov,mp4,m4a,3gp,3g2,mj2, from 'data\video127.mp4':
Metadata:
major_brand : isom
minor_version : 512
compatible_brands: isomiso2avc1mp41
encoder : Lavf56.13.100
Duration: 00:00:09.98, start: 0.033000, bitrate: 241 kb/s
Stream #0:0[0x1](und): Video: h264 (High) (avc1 / 0x31637661), yuv420p(progressive), 320x240, 238 kb/s, 29.97 fps, 29.97 tbr, 30k tbn (default)
Metadata:
handler_name : VideoHandler
vendor_id : [0][0][0][0]
Output #0, s16le, to 'pipe:':
[out#0/s16le @ 000001b9f0abcd00] Output file does not contain any stream
Error opening output file -.
Error opening output files: Invalid argument

Processing 304/7010: video1270.mp4
✅ Saved transcript to: output/transcripts\video1270.json
Processing 305/7010: video1271.mp4
✅ Saved transcript to: output/transcripts\video1271.json
Processing 306/7010: video1272.mp4
✅ Saved transcript to: output/transcripts\video1272.json
Processing 307/7010: video1273.mp4
✅ Saved transcript to: output/transcripts\video1273.json
Processing 308/7010: video1274.mp4
❌ Error processing data\video1274.mp4: Failed to load audio: ffmpeg version N-118142-g5ca5bbd462-20241223 Copyright (c) 2000-2024 the FFmpeg developers
built with gcc 14.2.0 (crosstool-NG 1.26.0.120_4d36f27)
configuration: --prefix=/ffbuild/prefix --pkg-config-flags=--static --pkg-config=pkg-config --cross-prefix=x86_64-w64-mingw32- --arch=x86_64 --target-os=mingw32 --enable-gpl --enable-version3 --disable-debug --disable-w32threads --enable-pthreads --enable-iconv --enable-zlib --enable-libfreetype --enable-libfribidi --enable-gmp --enable-libxml2 --enable-lzma --enable-fontconfig --enable-libharfbuzz --enable-libvorbis --enable-opencl --disable-libpulse --enable-libvmaf --disable-libxcb --disable-xlib --enable-amf --enable-libaom --enable-libaribb24 --enable-avisynth --enable-chromaprint --enable-libdav1d --enable-libdavs2 --enable-libdvdread --enable-libdvdnav --disable-libfdk-aac --enable-ffnvcodec --enable-cuda-llvm --enable-frei0r --enable-libgme --enable-libkvazaar --enable-libaribcaption --enable-libass --enable-libbluray --enable-libjxl --enable-libmp3lame --enable-libopus --enable-librist --enable-libssh --enable-libtheora --enable-libvpx --enable-libwebp --enable-libzmq --enable-lv2 --enable-libvpl --enable-openal --enable-libopencore-amrnb --enable-libopencore-amrwb --enable-libopenh264 --enable-libopenjpeg --enable-libopenmpt --enable-librav1e --enable-librubberband --enable-schannel --enable-sdl2 --enable-libsoxr --enable-libsrt --enable-libsvtav1 --enable-libtwolame --enable-libuavs3d --disable-libdrm --enable-vaapi --enable-libvidstab --enable-vulkan --enable-libshaderc --enable-libplacebo --disable-libvvenc --enable-libx264 --enable-libx265 --enable-libxavs2 --enable-libxvid --enable-libzimg --enable-libzvbi --extra-cflags=-DLIBTWOLAME_STATIC --extra-cxxflags= --extra-libs=-lgomp --extra-ldflags=-pthread --extra-ldexeflags= --cc=x86_64-w64-mingw32-gcc --cxx=x86_64-w64-mingw32-g++ --ar=x86_64-w64-mingw32-gcc-ar --ranlib=x86_64-w64-mingw32-gcc-ranlib --nm=x86_64-w64-mingw32-gcc-nm --extra-version=20241223
libavutil 59. 51.100 / 59. 51.100
libavcodec 61. 28.100 / 61. 28.100
libavformat 61. 9.101 / 61. 9.101
libavdevice 61. 4.100 / 61. 4.100
libavfilter 10. 6.101 / 10. 6.101
libswscale 8. 13.100 / 8. 13.100
libswresample 5. 4.100 / 5. 4.100
libpostproc 58. 4.100 / 58. 4.100
Input #0, mov,mp4,m4a,3gp,3g2,mj2, from 'data\video1274.mp4':
Metadata:
major_brand : isom
minor_version : 512
compatible_brands: isomiso2avc1mp41
encoder : Lavf56.13.100
Duration: 00:00:13.00, start: 0.000000, bitrate: 104 kb/s
Stream #0:0[0x1](und): Video: h264 (High) (avc1 / 0x31637661), yuv420p(progressive), 320x240, 101 kb/s, 25 fps, 25 tbr, 12800 tbn (default)
Metadata:
handler_name : VideoHandler
vendor_id : [0][0][0][0]
Output #0, s16le, to 'pipe:':
[out#0/s16le @ 00000140eddfbb40] Output file does not contain any stream
Error opening output file -.
Error opening output files: Invalid argument

Processing 309/7010: video1275.mp4
✅ Saved transcript to: output/transcripts\video1275.json
Processing 310/7010: video1276.mp4
✅ Saved transcript to: output/transcripts\video1276.json
Processing 311/7010: video1277.mp4
✅ Saved transcript to: output/transcripts\video1277.json
Processing 312/7010: video1278.mp4
